<?xml version="1.0" standalone="no"?>
<!DOCTYPE svg PUBLIC "-//W3C//DTD SVG 20010904//EN"
 "http://www.w3.org/TR/2001/REC-SVG-20010904/DTD/svg10.dtd">
<svg version="1.0" xmlns="http://www.w3.org/2000/svg"
 width="1080.000000pt" height="1080.000000pt" viewBox="0 0 1080.000000 1080.000000"
 preserveAspectRatio="xMidYMid meet">

<g transform="translate(0.000000,1080.000000) scale(0.100000,-0.100000)"
fill="#000000" stroke="none">
<path d="M602 10779 c-142 -24 -267 -92 -382 -208 -89 -90 -137 -166 -182
-291 l-23 -65 -3 -4775 c-3 -5366 -10 -4855 75 -5030 39 -77 62 -109 132 -180
95 -96 176 -147 299 -189 l77 -26 4805 0 4805 0 77 26 c121 42 204 93 294 183
87 88 140 171 183 289 l26 72 0 4810 0 4810 -23 70 c-43 128 -90 203 -187 300
-95 95 -193 155 -315 193 -51 16 -367 17 -4830 18 -2706 1 -4798 -2 -4828 -7z
m8872 -174 c245 -32 453 -129 592 -276 99 -106 147 -226 165 -416 l12 -118
-61 -415 c-190 -1292 -401 -2580 -613 -3730 -280 -1525 -547 -2645 -926 -3880
-81 -267 -209 -663 -223 -695 -5 -11 -20 -46 -34 -77 -76 -178 -254 -351 -472
-461 -136 -69 -369 -140 -569 -174 -141 -23 -427 -23 -555 1 -126 24 -316 88
-415 139 -151 79 -257 212 -285 357 -14 74 5 446 31 607 11 67 26 184 34 260
50 483 62 554 144 846 50 176 204 830 217 917 8 55 12 58 -112 -105 -181 -240
-298 -379 -424 -505 -104 -104 -143 -136 -234 -189 -308 -180 -606 -260 -971
-261 -294 0 -495 55 -560 153 -8 13 -42 95 -74 181 -33 86 -74 182 -92 214
-70 124 -107 205 -129 288 -14 52 -26 80 -31 72 -4 -7 -35 -130 -69 -273 -134
-566 -307 -1142 -439 -1460 -73 -174 -184 -392 -284 -555 -39 -63 -89 -150
-112 -192 -59 -106 -103 -164 -186 -242 -144 -137 -345 -236 -615 -306 -414
-107 -752 -98 -1139 31 -276 92 -448 244 -501 443 -47 177 28 738 191 1431 72
306 235 945 314 1230 33 121 97 357 141 525 173 649 374 1375 475 1715 29 99
72 243 95 320 145 489 359 1080 588 1620 237 561 576 1196 813 1524 96 134
107 150 164 251 216 383 564 658 994 785 283 84 572 118 814 96 225 -20 502
-101 644 -188 45 -28 49 -35 81 -124 18 -52 49 -148 69 -214 30 -105 34 -131
31 -210 -3 -77 -8 -100 -35 -158 -18 -37 -56 -93 -85 -125 -85 -91 -81 -74
-58 -213 50 -300 64 -663 35 -929 -23 -220 -100 -715 -143 -928 -11 -50 -17
-92 -13 -92 3 1 83 129 176 287 514 863 872 1386 1316 1918 442 529 959 996
1253 1130 185 84 430 147 691 178 79 10 276 5 379 -8z"/>
</g>
</svg>
