<svg xmlns="http://www.w3.org/2000/svg" xmlns:xlink="http://www.w3.org/1999/xlink" viewBox="0 0 64 64" id="presentation">
  <defs>
    <linearGradient id="a">
      <stop offset="0" stop-color="#8526fe" class="stopColor0462d5 svgShape"></stop>
      <stop offset="1" stop-color="#5fe4d4" class="stopColor61cff8 svgShape"></stop>
    </linearGradient>
    <linearGradient xlink:href="#a" id="b" x1="240" x2="304" y1="1440" y2="1504" gradientTransform="translate(-240 -1440)" gradientUnits="userSpaceOnUse"></linearGradient>
  </defs>
  <g fill="#d8a353" class="color000000 svgShape">
    <path fill="url(#b)" fill-rule="evenodd" d="M 5,0 C 2.25043,0 0,2.2504 0,5 v 4 c 5e-5,0.5523 0.44774,1 1,1 h 1 v 41 c 0,2.7496 2.25042,5 5,5 h 22 v 2 h -1 c -0.55226,1e-4 -0.99995,0.4477 -1,1 v 1.8809 C 27,62.8655 28.71265,64 30.11914,64 h 3.76172 C 35.28728,64 37,62.8655 37,60.8809 V 59 c -5e-5,-0.5523 -0.44774,-0.9999 -1,-1 h -1 v -2 h 22 c 2.74958,0 5,-2.2504 5,-5 V 10 h 1 c 0.55226,0 0.99995,-0.4477 1,-1 V 5 C 64,2.2504 61.74957,0 59,0 Z m 0,2 h 54 c 1.6687,0 3,1.3313 3,3 V 8 H 2 V 5 C 2,3.3313 3.3313,2 5,2 Z m -1,8 h 56 v 41 c 0,1.6687 -1.3313,3 -3,3 H 7 C 5.3313,54 4,52.6687 4,51 Z m 9,4 c -2.74957,0 -5,2.2504 -5,5 v 26 c 0,2.7496 2.25043,5 5,5 h 26 c 2.74957,0 5,-2.2504 5,-5 V 19 c 0,-2.7496 -2.25043,-5 -5,-5 z m 34,1.666 c -0.55228,0 -1,0.4477 -1,1 0,0.5523 0.44772,1 1,1 h 10 c 0.55228,0 1,-0.4477 1,-1 0,-0.5523 -0.44772,-1 -1,-1 z M 13,16 h 26 c 1.6687,0 3,1.3313 3,3 v 26 c 0,1.6687 -1.3313,3 -3,3 H 13 c -1.6687,0 -3,-1.3313 -3,-3 V 19 c 0,-0.1043 0.006,-0.2072 0.0156,-0.3086 C 10.168,17.1702 11.4356,16 13,16 Z m 12.99219,4 C 19.38021,20 14,25.3871 14,32 c 0,6.6156 5.38444,12 12,12 6.61556,0 12,-5.3844 12,-12 0,-6.6156 -5.38444,-12 -12,-12 -0.002,0 -0.004,0 -0.006,0 z m -0.98438,2.0488 0.0605,8.9571 -9.02344,0.062 c 0.43844,-4.7678 4.20351,-8.5531 8.96289,-9.0196 z m 2,0 C 32.06634,22.5525 36,26.8059 36,32 c 0,5.5347 -4.46532,10 -10,10 -2.36227,0 -4.52771,-0.8149 -6.23633,-2.1777 l 7.02344,-7.1192 c 0.28089,-0.2849 0.28707,-0.6185 0.28711,-0.709 -0.0214,-3.3151 -0.0442,-6.6302 -0.0664,-9.9453 z M 47,23.334 c -0.55228,0 -1,0.4477 -1,1 0,0.5523 0.44772,1 1,1 h 10 c 0.55228,0 1,-0.4477 1,-1 0,-0.5523 -0.44772,-1 -1,-1 z M 47,31 c -0.55228,0 -1,0.4477 -1,1 0,0.5523 0.44772,1 1,1 h 10 c 0.55228,0 1,-0.4477 1,-1 0,-0.5523 -0.44772,-1 -1,-1 z m -23.33398,2.0156 -5.33399,5.4102 C 17.091,36.9455 16.27127,35.0991 16.05664,33.0684 Z M 47,38.666 c -0.55228,0 -1,0.4477 -1,1 0,0.5523 0.44772,1 1,1 h 10 c 0.55228,0 1,-0.4477 1,-1 0,-0.5523 -0.44772,-1 -1,-1 z m 0,7.668 c -0.55228,0 -1,0.4477 -1,1 0,0.5523 0.44772,1 1,1 h 10 c 0.55228,0 1,-0.4477 1,-1 0,-0.5523 -0.44772,-1 -1,-1 z M 31,56 h 2 v 2 h -2 z m -2,4 h 6 v 0.8809 C 35,61.5106 34.51057,62 33.88086,62 H 30.11914 C 29.48943,62 29,61.5106 29,60.8809 Z" color="#000" style="-inkscape-stroke:none"></path>
  </g>
</svg>
