<svg xmlns="http://www.w3.org/2000/svg" viewBox="0 0 512 512" id="UsbModem">
  <defs>
    <linearGradient id="a" x1="103.029" x2="389.532" y1="501.284" y2="5.045" gradientUnits="userSpaceOnUse">
      <stop offset="0" stop-color="#8526fe" class="stopColor1751ff svgShape"></stop>
      <stop offset="1" stop-color="#5fe4d4" class="stopColor5cc5ff svgShape"></stop>
    </linearGradient>
  </defs>
  <path fill="url(#a)" d="M505.013,121.521c0-2.387-.948-4.676-2.636-6.364L396.843,9.623c-3.515-3.515-9.213-3.515-12.728,0l-83.055,83.055c-14.17-11.308-34.939-10.411-48.052,2.703L21.687,326.702c-19.601,19.602-19.601,51.496,0,71.098l5.825,5.824c-8.076,11.822-6.88,28.122,3.605,38.607l38.651,38.65c5.923,5.924,13.702,8.885,21.482,8.885,5.992,0,11.981-1.765,17.125-5.279l5.825,5.826c9.801,9.8,22.674,14.7,35.548,14.7s25.748-4.9,35.548-14.7l231.32-231.321c6.802-6.802,10.548-15.874,10.548-25.544,0-8.297-2.765-16.148-7.844-22.508l83.056-83.055c1.688-1.688,2.636-3.977,2.636-6.364ZM82.496,468.154l-38.652-38.651c-2.321-2.321-3.6-5.43-3.6-8.753s1.278-6.433,3.6-8.754l89.034-89.034c7.743-7.742,17.91-11.612,28.08-11.612s20.339,3.872,28.08,11.612c15.483,15.483,15.483,40.676,0,56.159l-89.034,89.034c-4.827,4.828-12.681,4.827-17.508,0ZM403.89,246.264l-231.32,231.32c-12.583,12.585-33.058,12.583-45.641,0l-5.449-5.449,80.287-80.287c22.501-22.502,22.501-59.114,0-81.616-22.501-22.5-59.113-22.5-81.615,0l-80.287,80.287-5.449-5.448c-12.583-12.584-12.583-33.059,0-45.642L265.736,108.109c7.066-7.066,18.565-7.066,25.631,0l112.523,112.524c3.402,3.402,5.276,7.954,5.276,12.815s-1.874,9.414-5.276,12.816Zm2.869-48.217l-92.806-92.807L390.479,28.714l92.807,92.807-76.526,76.526Zm-8.938-60.871l24.938-24.938c3.515-3.515,9.213-3.515,12.728,0,3.515,3.515,3.515,9.213,0,12.728l-24.938,24.938c-1.757,1.757-4.061,2.636-6.364,2.636s-4.606-.878-6.364-2.636c-3.515-3.515-3.515-9.213,0-12.728Zm-10.788-60.663c3.515-3.515,9.213-3.515,12.728,0s3.515,9.213,0,12.728l-24.938,24.938c-1.757,1.757-4.061,2.636-6.364,2.636s-4.606-.879-6.364-2.636c-3.515-3.515-3.515-9.213,0-12.728l24.938-24.938Zm-118.815,167.267c-4.89-4.889-11.391-7.582-18.305-7.582s-13.416,2.693-18.305,7.582c-4.89,4.89-7.583,11.391-7.583,18.306s2.693,13.416,7.583,18.305c4.89,4.89,11.391,7.583,18.305,7.583s13.416-2.693,18.305-7.583,7.583-11.391,7.583-18.305-2.693-13.416-7.582-18.305c0,0,0,0,0,0Zm-12.728,23.883c-1.489,1.49-3.47,2.311-5.577,2.311s-4.088-.821-5.578-2.311-2.311-3.471-2.311-5.578,.821-4.088,2.311-5.578,3.471-2.311,5.578-2.311,4.088,.821,5.577,2.311t0,0c1.49,1.489,2.311,3.47,2.311,5.577s-.821,4.088-2.311,5.578Zm37.813-48.968c13.892,13.892,20.329,33.346,18.125,54.78-.476,4.631-4.385,8.08-8.942,8.08-.308,0-.618-.016-.931-.048-4.944-.508-8.541-4.929-8.032-9.873,1.639-15.942-2.959-30.224-12.948-40.212-9.988-9.989-24.269-14.589-40.212-12.949-4.949,.508-9.365-3.088-9.873-8.032-.508-4.945,3.088-9.365,8.032-9.873,21.438-2.202,40.889,4.234,54.781,18.126Zm27.116-27.118c19.81,19.809,28.981,47.623,25.826,78.319-.476,4.631-4.385,8.08-8.942,8.08-.308,0-.618-.016-.931-.048-4.944-.508-8.541-4.929-8.032-9.873,2.591-25.204-4.742-47.845-20.648-63.75-15.906-15.906-38.547-23.235-63.75-20.647-4.945,.507-9.365-3.087-9.873-8.032-.508-4.944,3.088-9.365,8.032-9.873,30.695-3.151,58.509,6.016,78.318,25.825Zm-137.045,137.048s0,0,0,0c-12.361-12.359-32.473-12.36-44.833,0-12.359,12.36-12.359,32.473,0,44.832,5.988,5.988,13.949,9.286,22.417,9.286s16.429-3.298,22.417-9.285c5.988-5.987,9.285-13.948,9.285-22.417s-3.297-16.429-9.285-22.415Zm-12.729,32.104c-2.588,2.588-6.029,4.013-9.688,4.013s-7.101-1.425-9.689-4.014c-5.342-5.342-5.342-14.035,0-19.377,2.671-2.671,6.18-4.007,9.688-4.007s7.018,1.336,9.689,4.007h0c2.588,2.589,4.013,6.029,4.013,9.688s-1.425,7.101-4.014,9.689Z"></path>
</svg>
